# xmcd
#
# Track frame offsets: 
#        150
#        19678
#        33118
#        45853
#        57665
#        66405
#        89238
#        101653
#        114492
#        127960
#        142346
#        152950
#        167570
#        178693
#        189991
#        197322
#        212546
#        226329
#        267275
#        290489
#
# Disc length: 4151 seconds
#
# Revision: 0
# Processed by: cddbd v1.5.2PL0 Copyright (c) Steve Scherf et al.
# Submitted via: ExactAudioCopy v0.99pb3
#
DISCID=1f103514
DTITLE=Peppermint Harris - Penthouse In The Ghetto
DYEAR=1997
DGENRE=Blues
TTITLE0=Black Widow Spider
TTITLE1=Key To The Highway
TTITLE2=All For You
TTITLE3=I'll Wipe Away Your Tears
TTITLE4=Cadillac Funeral
TTITLE5=Penthouse In The Ghetto
TTITLE6=Fantasy
TTITLE7=Here Come The Blues
TTITLE8=The President's Lawyer
TTITLE9=I'll Learn To Love Again
TTITLE10=I'm So Lonesome
TTITLE11=Sinners' Prayer
TTITLE12=Cherry Red
TTITLE13=Talk About Love
TTITLE14=Is There Someone Else
TTITLE15=I'd Rather Be Hurt
TTITLE16=To Be With The One You Love
TTITLE17=Guinine Canine
TTITLE18=I'm Doin' Bad
TTITLE19=Texas On My Mind
EXTD=
EXTT0=
EXTT1=
EXTT2=
EXTT3=
EXTT4=
EXTT5=
EXTT6=
EXTT7=
EXTT8=
EXTT9=
EXTT10=
EXTT11=
EXTT12=
EXTT13=
EXTT14=
EXTT15=
EXTT16=
EXTT17=
EXTT18=
EXTT19=
PLAYORDER=
